<?xml version="1.0" encoding="iso-8859-1"?>
<!-- Generator: Adobe Illustrator 18.0.0, SVG Export Plug-In . SVG Version: 6.00 Build 0)  -->
<!DOCTYPE svg PUBLIC "-//W3C//DTD SVG 1.1//EN" "http://www.w3.org/Graphics/SVG/1.1/DTD/svg11.dtd">
<svg xmlns="http://www.w3.org/2000/svg" xmlns:xlink="http://www.w3.org/1999/xlink" version="1.1" id="Capa_1" x="0px" y="0px" viewBox="0 0 297 297" style="enable-background:new 0 0 297 297;" xml:space="preserve" width="512px" height="512px">
<g>
	<g>
		<path d="M263.535,0H33.465C15.013,0,0,15.013,0,33.465v230.07C0,281.987,15.013,297,33.465,297h230.07    C281.987,297,297,281.987,297,263.535V33.465C297,15.013,281.987,0,263.535,0z M258.382,173.364    c-9.565,15.001-22.805,29.792-39.352,43.963c-27.941,23.933-56.18,38.335-59.303,39.896c-3.467,1.734-7.349,2.651-11.227,2.651    s-7.761-0.917-11.223-2.649c-3.128-1.563-31.366-15.966-59.308-39.898c-16.547-14.171-29.786-28.962-39.352-43.963    c-12.44-19.51-18.748-39.485-18.748-59.375c0-42.384,34.48-76.864,76.864-76.864c19.394,0,37.76,7.284,51.766,20.07    c14.006-12.786,32.372-20.07,51.766-20.07c42.384,0,76.864,34.48,76.864,76.864C277.13,133.879,270.822,153.855,258.382,173.364z" fill="#FFFFFF"/>
	</g>
	<g>
		<path d="M200.266,51.766c-21.561,0-40.596,11.024-51.766,27.732c-11.17-16.707-30.205-27.732-51.766-27.732    c-34.311,0-62.224,27.913-62.224,62.224c0,74.626,104.849,127.909,109.313,130.141c1.472,0.736,3.074,1.105,4.677,1.105    s3.205-0.368,4.677-1.105c4.464-2.231,109.312-55.515,109.312-130.141C262.489,79.679,234.576,51.766,200.266,51.766z" fill="#FFFFFF"/>
	</g>
</g>
<g>
</g>
<g>
</g>
<g>
</g>
<g>
</g>
<g>
</g>
<g>
</g>
<g>
</g>
<g>
</g>
<g>
</g>
<g>
</g>
<g>
</g>
<g>
</g>
<g>
</g>
<g>
</g>
<g>
</g>
</svg>
